<mxfile host="app.diagrams.net" modified="2023-03-28T05:53:02.072Z" agent="Mozilla/5.0 (Windows NT 10.0; Win64; x64; rv:109.0) Gecko/20100101 Firefox/111.0" etag="b-pkniFzdm3De2dq2B6E" version="21.1.1" type="github" pages="3">
  <diagram name="第 1 页" id="dh9QJbm2s8XATDBdd-MG">
    <mxGraphModel dx="2117" dy="538" grid="1" gridSize="10" guides="1" tooltips="1" connect="1" arrows="1" fold="1" page="1" pageScale="1" pageWidth="827" pageHeight="1169" math="0" shadow="0">
      <root>
        <mxCell id="0" />
        <mxCell id="1" parent="0" />
        <mxCell id="FsenPDVMBQdXBydk2ZDS-16" value="&lt;p style=&quot;margin:0px;margin-top:4px;text-align:center;&quot;&gt;BeanFactory&lt;/p&gt;&lt;hr size=&quot;1&quot;&gt;&lt;p style=&quot;margin:0px;margin-left:4px;&quot;&gt;+ beanDefinitionMap: Map&amp;lt;String,BeanDefinition&amp;gt;&lt;/p&gt;&lt;hr size=&quot;1&quot;&gt;&lt;p style=&quot;margin:0px;margin-left:4px;&quot;&gt;+registerBeanDefinition(String name,BeanDefinition beanfinition): &lt;br&gt;&lt;/p&gt;&lt;p style=&quot;margin:0px;margin-left:4px;&quot;&gt;&lt;br&gt;&lt;/p&gt;&lt;p style=&quot;margin:0px;margin-left:4px;&quot;&gt;+ getBean(String name): &lt;/p&gt;" style="verticalAlign=top;align=left;overflow=fill;fontSize=12;fontFamily=Helvetica;html=1;whiteSpace=wrap;fillColor=#d5e8d4;strokeColor=#82b366;" parent="1" vertex="1">
          <mxGeometry x="80" y="210" width="340" height="130" as="geometry" />
        </mxCell>
        <mxCell id="FsenPDVMBQdXBydk2ZDS-19" value="依赖" style="endArrow=open;endSize=12;dashed=1;html=1;rounded=1;exitX=0.474;exitY=-0.031;exitDx=0;exitDy=0;exitPerimeter=0;strokeColor=default;strokeWidth=4;fontSize=16;" parent="1" source="FsenPDVMBQdXBydk2ZDS-16" edge="1">
          <mxGeometry x="-0.0418" y="20" width="160" relative="1" as="geometry">
            <mxPoint x="240" y="192" as="sourcePoint" />
            <mxPoint x="240" y="110" as="targetPoint" />
            <Array as="points">
              <mxPoint x="240" y="160" />
            </Array>
            <mxPoint as="offset" />
          </mxGeometry>
        </mxCell>
        <mxCell id="FsenPDVMBQdXBydk2ZDS-20" value="Beanfinition" style="swimlane;fontStyle=0;childLayout=stackLayout;horizontal=1;startSize=26;fillColor=#d5e8d4;horizontalStack=0;resizeParent=1;resizeParentMax=0;resizeLast=0;collapsible=1;marginBottom=0;whiteSpace=wrap;html=1;strokeColor=#82b366;" parent="1" vertex="1">
          <mxGeometry x="170" y="50" width="140" height="52" as="geometry" />
        </mxCell>
        <mxCell id="FsenPDVMBQdXBydk2ZDS-21" value="+ bean:Object" style="text;strokeColor=#82b366;fillColor=#d5e8d4;align=left;verticalAlign=top;spacingLeft=4;spacingRight=4;overflow=hidden;rotatable=0;points=[[0,0.5],[1,0.5]];portConstraint=eastwest;whiteSpace=wrap;html=1;" parent="FsenPDVMBQdXBydk2ZDS-20" vertex="1">
          <mxGeometry y="26" width="140" height="26" as="geometry" />
        </mxCell>
        <mxCell id="FsenPDVMBQdXBydk2ZDS-26" value="ApiTest" style="html=1;whiteSpace=wrap;" parent="1" vertex="1">
          <mxGeometry x="185" y="430" width="110" height="50" as="geometry" />
        </mxCell>
        <mxCell id="FsenPDVMBQdXBydk2ZDS-27" value="使用" style="endArrow=open;dashed=1;html=1;rounded=0;strokeWidth=4;fontSize=16;" parent="1" edge="1">
          <mxGeometry y="20" width="160" relative="1" as="geometry">
            <mxPoint x="240" y="420" as="sourcePoint" />
            <mxPoint x="240" y="340" as="targetPoint" />
            <Array as="points">
              <mxPoint x="240" y="360" />
            </Array>
            <mxPoint as="offset" />
          </mxGeometry>
        </mxCell>
        <mxCell id="FsenPDVMBQdXBydk2ZDS-29" value="Bean定义" style="text;html=1;align=center;verticalAlign=middle;resizable=0;points=[];autosize=1;strokeColor=none;fillColor=none;fontSize=16;" parent="1" vertex="1">
          <mxGeometry x="-10" y="61" width="90" height="30" as="geometry" />
        </mxCell>
        <mxCell id="FsenPDVMBQdXBydk2ZDS-30" value="Bean工厂" style="text;html=1;align=center;verticalAlign=middle;resizable=0;points=[];autosize=1;strokeColor=none;fillColor=none;fontSize=16;" parent="1" vertex="1">
          <mxGeometry x="-20" y="255" width="90" height="30" as="geometry" />
        </mxCell>
        <mxCell id="FsenPDVMBQdXBydk2ZDS-31" value="测试类" style="text;html=1;align=center;verticalAlign=middle;resizable=0;points=[];autosize=1;strokeColor=none;fillColor=none;fontSize=16;" parent="1" vertex="1">
          <mxGeometry x="-15" y="430" width="70" height="30" as="geometry" />
        </mxCell>
        <mxCell id="rt5Uls9R-AbdbXM5jlS3-1" value="创建简单的Bean容器" style="text;html=1;align=center;verticalAlign=middle;resizable=0;points=[];autosize=1;strokeColor=none;fillColor=none;fontSize=18;" parent="1" vertex="1">
          <mxGeometry x="-55" width="190" height="40" as="geometry" />
        </mxCell>
      </root>
    </mxGraphModel>
  </diagram>
  <diagram id="QNsL7sPdJeYb61cAPO8Z" name="第 2 页">
    <mxGraphModel dx="2577" dy="2066" grid="1" gridSize="10" guides="1" tooltips="1" connect="1" arrows="1" fold="1" page="1" pageScale="1" pageWidth="827" pageHeight="1169" math="0" shadow="0">
      <root>
        <mxCell id="0" />
        <mxCell id="1" parent="0" />
        <mxCell id="A9AcCAwVKS-y1DrHHfAE-34" style="edgeStyle=none;shape=connector;rounded=1;orthogonalLoop=1;jettySize=auto;html=1;entryX=0.5;entryY=1.014;entryDx=0;entryDy=0;entryPerimeter=0;labelBackgroundColor=default;strokeColor=default;fontFamily=Helvetica;fontSize=11;fontColor=default;endArrow=block;endFill=0;endSize=16;" parent="1" source="A9AcCAwVKS-y1DrHHfAE-12" target="A9AcCAwVKS-y1DrHHfAE-31" edge="1">
          <mxGeometry relative="1" as="geometry" />
        </mxCell>
        <mxCell id="A9AcCAwVKS-y1DrHHfAE-12" value="DefaultListableBeanFactory" style="swimlane;fontStyle=1;align=center;verticalAlign=top;childLayout=stackLayout;horizontal=1;startSize=26;horizontalStack=0;resizeParent=1;resizeParentMax=0;resizeLast=0;collapsible=1;marginBottom=0;whiteSpace=wrap;html=1;" parent="1" vertex="1">
          <mxGeometry x="-40" y="620" width="340" height="150" as="geometry" />
        </mxCell>
        <mxCell id="A9AcCAwVKS-y1DrHHfAE-13" value="+ beanDefinitionMap: Map&amp;lt;String,BeanDefinition&amp;gt;" style="text;strokeColor=none;fillColor=none;align=left;verticalAlign=top;spacingLeft=4;spacingRight=4;overflow=hidden;rotatable=0;points=[[0,0.5],[1,0.5]];portConstraint=eastwest;whiteSpace=wrap;html=1;" parent="A9AcCAwVKS-y1DrHHfAE-12" vertex="1">
          <mxGeometry y="26" width="340" height="24" as="geometry" />
        </mxCell>
        <mxCell id="A9AcCAwVKS-y1DrHHfAE-14" value="" style="line;strokeWidth=1;fillColor=none;align=left;verticalAlign=middle;spacingTop=-1;spacingLeft=3;spacingRight=3;rotatable=0;labelPosition=right;points=[];portConstraint=eastwest;strokeColor=inherit;" parent="A9AcCAwVKS-y1DrHHfAE-12" vertex="1">
          <mxGeometry y="50" width="340" height="8" as="geometry" />
        </mxCell>
        <mxCell id="A9AcCAwVKS-y1DrHHfAE-15" value="&lt;div&gt;+ getBeanDefinition(String name): Beanfinition&lt;/div&gt;&lt;div&gt;&lt;br&gt;&lt;/div&gt;&lt;div&gt;+ registerBeanDefinition(String name,Beanfinition beanfinition)&lt;br&gt;&lt;/div&gt;" style="text;strokeColor=none;fillColor=none;align=left;verticalAlign=top;spacingLeft=4;spacingRight=4;overflow=hidden;rotatable=0;points=[[0,0.5],[1,0.5]];portConstraint=eastwest;whiteSpace=wrap;html=1;" parent="A9AcCAwVKS-y1DrHHfAE-12" vertex="1">
          <mxGeometry y="58" width="340" height="92" as="geometry" />
        </mxCell>
        <mxCell id="yJOfvLxUSj5ndzEBByeN-2" value="&lt;p style=&quot;margin:0px;margin-top:4px;text-align:center;&quot;&gt;&lt;i&gt;&amp;lt;&amp;lt;Interface&amp;gt;&amp;gt;&lt;/i&gt;&lt;br&gt;&lt;/p&gt;&lt;p style=&quot;margin:0px;margin-top:4px;text-align:center;&quot;&gt;BeanFactory&lt;/p&gt;&lt;hr size=&quot;1&quot;&gt;&lt;br&gt;&lt;hr size=&quot;1&quot;&gt;&lt;p style=&quot;margin:0px;margin-left:4px;&quot;&gt;+getBean(String name): Object&lt;br&gt;&lt;/p&gt;&lt;p style=&quot;margin:0px;margin-left:4px;&quot;&gt;&lt;br&gt;&lt;/p&gt;&lt;p style=&quot;margin:0px;margin-left:4px;&quot;&gt;+ getBean(String name, Object[] args): Object&lt;br&gt;&lt;/p&gt;" style="verticalAlign=top;align=left;overflow=fill;fontSize=12;fontFamily=Helvetica;html=1;whiteSpace=wrap;" parent="1" vertex="1">
          <mxGeometry y="-200" width="341" height="140" as="geometry" />
        </mxCell>
        <mxCell id="yJOfvLxUSj5ndzEBByeN-8" value="AbstractBeanFactory" style="swimlane;fontStyle=1;align=center;verticalAlign=top;childLayout=stackLayout;horizontal=1;startSize=26;horizontalStack=0;resizeParent=1;resizeParentMax=0;resizeLast=0;collapsible=1;marginBottom=0;whiteSpace=wrap;html=1;" parent="1" vertex="1">
          <mxGeometry x="-40" y="80" width="370" height="186" as="geometry" />
        </mxCell>
        <mxCell id="yJOfvLxUSj5ndzEBByeN-10" value="" style="line;strokeWidth=1;fillColor=none;align=left;verticalAlign=middle;spacingTop=-1;spacingLeft=3;spacingRight=3;rotatable=0;labelPosition=right;points=[];portConstraint=eastwest;strokeColor=inherit;" parent="yJOfvLxUSj5ndzEBByeN-8" vertex="1">
          <mxGeometry y="26" width="370" height="8" as="geometry" />
        </mxCell>
        <mxCell id="yJOfvLxUSj5ndzEBByeN-11" value="&lt;div&gt;+getBean(String name): Object&lt;/div&gt;&lt;div&gt;&lt;br&gt;&lt;/div&gt;&lt;div&gt;+ getBean(String name, Object[] args): Object&lt;br&gt;&lt;br&gt;&lt;p style=&quot;margin:0px;margin-left:4px;&quot; align=&quot;left&quot;&gt;#getBeanDefinition(String beanName) : Beanfinition&lt;/p&gt;&lt;p style=&quot;margin:0px;margin-left:4px;&quot; align=&quot;left&quot;&gt;&lt;br&gt;&lt;/p&gt;&lt;p style=&quot;margin:0px;margin-left:4px;&quot; align=&quot;left&quot;&gt;#createBean(String beanName,Beanfinition beanfinition): Object&lt;br&gt;&lt;/p&gt;&lt;p style=&quot;margin:0px;margin-left:4px;&quot; align=&quot;left&quot;&gt;&lt;br&gt;&lt;/p&gt;&lt;br&gt;&lt;/div&gt;" style="text;strokeColor=none;fillColor=none;align=left;verticalAlign=top;spacingLeft=4;spacingRight=4;overflow=hidden;rotatable=0;points=[[0,0.5],[1,0.5]];portConstraint=eastwest;whiteSpace=wrap;html=1;" parent="yJOfvLxUSj5ndzEBByeN-8" vertex="1">
          <mxGeometry y="34" width="370" height="152" as="geometry" />
        </mxCell>
        <mxCell id="yJOfvLxUSj5ndzEBByeN-13" value="实现" style="text;html=1;align=center;verticalAlign=middle;resizable=0;points=[];autosize=1;strokeColor=none;fillColor=none;" parent="1" vertex="1">
          <mxGeometry x="100" y="-30" width="50" height="30" as="geometry" />
        </mxCell>
        <mxCell id="A9AcCAwVKS-y1DrHHfAE-16" value="&lt;p style=&quot;margin:0px;margin-top:4px;text-align:center;&quot;&gt;&lt;i&gt;&amp;lt;&amp;lt;Interface&amp;gt;&amp;gt;&lt;/i&gt;&lt;br&gt;&lt;b&gt;BeanDefinitionRegistry&lt;/b&gt;&lt;br&gt;&lt;/p&gt;&lt;hr size=&quot;1&quot;&gt;&lt;p style=&quot;margin:0px;margin-left:4px;&quot;&gt;&lt;br&gt;&lt;/p&gt;&lt;hr size=&quot;1&quot;&gt;&lt;p style=&quot;margin:0px;margin-left:4px;&quot;&gt;+ registerBeanDefinition(String name,Beanfinition befinition ): void&lt;br&gt;&lt;/p&gt;" style="verticalAlign=top;align=left;overflow=fill;fontSize=12;fontFamily=Helvetica;html=1;whiteSpace=wrap;fontColor=default;" parent="1" vertex="1">
          <mxGeometry x="680" y="620" width="360" height="120" as="geometry" />
        </mxCell>
        <mxCell id="A9AcCAwVKS-y1DrHHfAE-17" value="&lt;font style=&quot;font-size: 16px;&quot; color=&quot;#ff0000&quot;&gt;Bean定义注册类&lt;/font&gt;" style="text;html=1;align=center;verticalAlign=middle;resizable=0;points=[];autosize=1;strokeColor=none;fillColor=none;fontSize=11;fontFamily=Helvetica;fontColor=default;" parent="1" vertex="1">
          <mxGeometry x="710" y="580" width="140" height="30" as="geometry" />
        </mxCell>
        <mxCell id="A9AcCAwVKS-y1DrHHfAE-19" value="&lt;p style=&quot;margin:0px;margin-top:4px;text-align:center;&quot;&gt;Beanfinition&lt;/p&gt;&lt;hr size=&quot;1&quot;&gt;&lt;p style=&quot;margin:0px;margin-left:4px;&quot;&gt;+ beanClass: Class &lt;/p&gt;&lt;hr size=&quot;1&quot;&gt;&lt;p style=&quot;margin:0px;margin-left:4px;&quot;&gt;&lt;br&gt;&lt;/p&gt;" style="verticalAlign=top;align=left;overflow=fill;fontSize=12;fontFamily=Helvetica;html=1;whiteSpace=wrap;" parent="1" vertex="1">
          <mxGeometry x="770" y="800" width="160" height="90" as="geometry" />
        </mxCell>
        <mxCell id="A9AcCAwVKS-y1DrHHfAE-20" value="" style="endArrow=open;endFill=1;endSize=12;html=1;rounded=0;labelBackgroundColor=default;strokeColor=default;fontFamily=Helvetica;fontSize=11;fontColor=default;shape=connector;entryX=-0.006;entryY=0.433;entryDx=0;entryDy=0;exitX=0.824;exitY=1;exitDx=0;exitDy=0;exitPerimeter=0;entryPerimeter=0;" parent="1" target="A9AcCAwVKS-y1DrHHfAE-19" edge="1" source="A9AcCAwVKS-y1DrHHfAE-15">
          <mxGeometry width="160" relative="1" as="geometry">
            <mxPoint x="300" y="710" as="sourcePoint" />
            <mxPoint x="460" y="710" as="targetPoint" />
            <Array as="points">
              <mxPoint x="240" y="840" />
            </Array>
          </mxGeometry>
        </mxCell>
        <mxCell id="A9AcCAwVKS-y1DrHHfAE-21" value="依赖" style="text;html=1;align=center;verticalAlign=middle;resizable=0;points=[];autosize=1;strokeColor=none;fillColor=none;fontSize=11;fontFamily=Helvetica;fontColor=default;" parent="1" vertex="1">
          <mxGeometry x="460" y="810" width="50" height="30" as="geometry" />
        </mxCell>
        <mxCell id="A9AcCAwVKS-y1DrHHfAE-22" value="" style="endArrow=block;dashed=1;endFill=0;endSize=12;html=1;rounded=0;strokeColor=default;" parent="1" edge="1">
          <mxGeometry width="160" relative="1" as="geometry">
            <mxPoint x="300" y="680" as="sourcePoint" />
            <mxPoint x="680" y="680" as="targetPoint" />
            <Array as="points" />
          </mxGeometry>
        </mxCell>
        <mxCell id="A9AcCAwVKS-y1DrHHfAE-23" value="实现" style="text;html=1;align=center;verticalAlign=middle;resizable=0;points=[];autosize=1;strokeColor=none;fillColor=none;fontSize=11;fontFamily=Helvetica;fontColor=default;" parent="1" vertex="1">
          <mxGeometry x="460" y="650" width="50" height="30" as="geometry" />
        </mxCell>
        <mxCell id="yJOfvLxUSj5ndzEBByeN-14" value="" style="endArrow=block;dashed=1;endFill=0;endSize=12;html=1;rounded=0;strokeColor=default;" parent="1" edge="1">
          <mxGeometry width="160" relative="1" as="geometry">
            <mxPoint x="145" y="70" as="sourcePoint" />
            <mxPoint x="145" y="-60" as="targetPoint" />
            <Array as="points">
              <mxPoint x="145" y="-40" />
            </Array>
          </mxGeometry>
        </mxCell>
        <mxCell id="yJOfvLxUSj5ndzEBByeN-15" value="&lt;p style=&quot;margin: 4px 0px 0px;&quot; align=&quot;center&quot;&gt;&lt;i&gt;&amp;lt;&amp;lt;Interface&amp;gt;&amp;gt;&lt;/i&gt;&lt;/p&gt;&lt;p style=&quot;margin: 4px 0px 0px;&quot; align=&quot;center&quot;&gt;&lt;span&gt;SingletonBeanRegistry&lt;/span&gt;&lt;br&gt;&lt;/p&gt;&lt;hr size=&quot;1&quot; align=&quot;left&quot;&gt;&lt;p style=&quot;margin:0px;margin-left:4px;&quot; align=&quot;left&quot;&gt;&lt;br&gt;&lt;/p&gt;&lt;hr size=&quot;1&quot; align=&quot;left&quot;&gt;&lt;p style=&quot;margin:0px;margin-left:4px;&quot; align=&quot;left&quot;&gt;+ getSingleton(String name)&lt;/p&gt;&lt;p style=&quot;margin:0px;margin-left:4px;&quot; align=&quot;left&quot;&gt;&lt;br&gt;&lt;/p&gt;&lt;p style=&quot;margin:0px;margin-left:4px;&quot; align=&quot;left&quot;&gt;+ registerSingleton(String beanName, Object&amp;nbsp; singletonObject)&lt;br&gt;&lt;/p&gt;" style="verticalAlign=top;align=left;overflow=fill;fontSize=12;fontFamily=Helvetica;html=1;whiteSpace=wrap;fontStyle=0" parent="1" vertex="1">
          <mxGeometry x="480" y="-200" width="410" height="140" as="geometry" />
        </mxCell>
        <mxCell id="yJOfvLxUSj5ndzEBByeN-16" value="&lt;font style=&quot;font-size: 16px;&quot; color=&quot;#ff0000&quot;&gt;Bean工厂&lt;/font&gt;" style="text;html=1;align=center;verticalAlign=middle;resizable=0;points=[];autosize=1;strokeColor=none;fillColor=none;" parent="1" vertex="1">
          <mxGeometry x="110" y="-235" width="90" height="30" as="geometry" />
        </mxCell>
        <mxCell id="yJOfvLxUSj5ndzEBByeN-17" value="&lt;font style=&quot;font-size: 16px;&quot; color=&quot;#ff3333&quot;&gt;单例Bean注册类&lt;/font&gt;" style="text;html=1;align=center;verticalAlign=middle;resizable=0;points=[];autosize=1;strokeColor=none;fillColor=none;fontSize=16;" parent="1" vertex="1">
          <mxGeometry x="590" y="-230" width="140" height="30" as="geometry" />
        </mxCell>
        <mxCell id="yJOfvLxUSj5ndzEBByeN-28" value="DefaultSingletonBeanRegistry" style="swimlane;fontStyle=1;align=center;verticalAlign=top;childLayout=stackLayout;horizontal=1;startSize=26;horizontalStack=0;resizeParent=1;resizeParentMax=0;resizeLast=0;collapsible=1;marginBottom=0;whiteSpace=wrap;html=1;" parent="1" vertex="1">
          <mxGeometry x="535" y="80" width="300" height="150" as="geometry" />
        </mxCell>
        <mxCell id="yJOfvLxUSj5ndzEBByeN-29" value="+ singletonObjects:&amp;nbsp; Map&amp;lt;String,Object&amp;gt;" style="text;strokeColor=none;fillColor=none;align=left;verticalAlign=top;spacingLeft=4;spacingRight=4;overflow=hidden;rotatable=0;points=[[0,0.5],[1,0.5]];portConstraint=eastwest;whiteSpace=wrap;html=1;" parent="yJOfvLxUSj5ndzEBByeN-28" vertex="1">
          <mxGeometry y="26" width="300" height="26" as="geometry" />
        </mxCell>
        <mxCell id="yJOfvLxUSj5ndzEBByeN-30" value="" style="line;strokeWidth=1;fillColor=none;align=left;verticalAlign=middle;spacingTop=-1;spacingLeft=3;spacingRight=3;rotatable=0;labelPosition=right;points=[];portConstraint=eastwest;strokeColor=inherit;" parent="yJOfvLxUSj5ndzEBByeN-28" vertex="1">
          <mxGeometry y="52" width="300" height="8" as="geometry" />
        </mxCell>
        <mxCell id="yJOfvLxUSj5ndzEBByeN-31" value="&lt;p style=&quot;margin:0px;margin-left:4px;&quot; align=&quot;left&quot;&gt;+ getSingleton(String name)&lt;/p&gt;&lt;p style=&quot;margin:0px;margin-left:4px;&quot; align=&quot;left&quot;&gt;&lt;br&gt;&lt;/p&gt;+ registerSingleton(String beanName, Object&amp;nbsp; singletonObject)" style="text;strokeColor=none;fillColor=none;align=left;verticalAlign=top;spacingLeft=4;spacingRight=4;overflow=hidden;rotatable=0;points=[[0,0.5],[1,0.5]];portConstraint=eastwest;whiteSpace=wrap;html=1;" parent="yJOfvLxUSj5ndzEBByeN-28" vertex="1">
          <mxGeometry y="60" width="300" height="90" as="geometry" />
        </mxCell>
        <mxCell id="yJOfvLxUSj5ndzEBByeN-32" value="&lt;font style=&quot;font-size: 16px;&quot; color=&quot;#ff3333&quot;&gt;默认单例Bean注册类&lt;/font&gt;" style="text;html=1;align=center;verticalAlign=middle;resizable=0;points=[];autosize=1;strokeColor=none;fillColor=none;" parent="1" vertex="1">
          <mxGeometry x="510" width="170" height="30" as="geometry" />
        </mxCell>
        <mxCell id="yJOfvLxUSj5ndzEBByeN-34" value="实现" style="text;html=1;align=center;verticalAlign=middle;resizable=0;points=[];autosize=1;strokeColor=none;fillColor=none;" parent="1" vertex="1">
          <mxGeometry x="670" y="-20" width="50" height="30" as="geometry" />
        </mxCell>
        <mxCell id="yJOfvLxUSj5ndzEBByeN-36" value="" style="endArrow=block;dashed=1;endFill=0;endSize=12;html=1;rounded=0;exitX=0.613;exitY=-0.033;exitDx=0;exitDy=0;exitPerimeter=0;" parent="1" source="yJOfvLxUSj5ndzEBByeN-28" edge="1">
          <mxGeometry width="160" relative="1" as="geometry">
            <mxPoint x="720" as="sourcePoint" />
            <mxPoint x="720" y="-60" as="targetPoint" />
            <Array as="points">
              <mxPoint x="720" y="-40" />
            </Array>
          </mxGeometry>
        </mxCell>
        <mxCell id="yJOfvLxUSj5ndzEBByeN-42" value="继承" style="endArrow=block;endSize=16;endFill=0;html=1;rounded=1;labelBackgroundColor=default;strokeColor=default;fontFamily=Helvetica;fontSize=11;fontColor=default;shape=connector;" parent="1" edge="1">
          <mxGeometry width="160" relative="1" as="geometry">
            <mxPoint x="330" y="100" as="sourcePoint" />
            <mxPoint x="533" y="100" as="targetPoint" />
          </mxGeometry>
        </mxCell>
        <mxCell id="yJOfvLxUSj5ndzEBByeN-44" value="&lt;font style=&quot;font-size: 16px;&quot; color=&quot;#ff0000&quot;&gt;抽象Bean工厂&amp;nbsp; &lt;br&gt;抽象的 Bean 工厂基类，&lt;br&gt;定义模板方法 &lt;/font&gt;" style="text;html=1;align=center;verticalAlign=middle;resizable=0;points=[];autosize=1;strokeColor=none;fillColor=none;fontSize=11;fontFamily=Helvetica;fontColor=default;" parent="1" vertex="1">
          <mxGeometry x="-65" y="10" width="200" height="70" as="geometry" />
        </mxCell>
        <mxCell id="A9AcCAwVKS-y1DrHHfAE-18" value="&lt;font style=&quot;font-size: 16px;&quot; color=&quot;#ff3333&quot;&gt;默认Bean工厂实现类&lt;/font&gt;" style="text;html=1;align=center;verticalAlign=middle;resizable=0;points=[];autosize=1;strokeColor=none;fillColor=none;fontSize=11;fontFamily=Helvetica;fontColor=default;" parent="1" vertex="1">
          <mxGeometry x="-85" y="580" width="170" height="30" as="geometry" />
        </mxCell>
        <mxCell id="A9AcCAwVKS-y1DrHHfAE-32" style="edgeStyle=none;shape=connector;rounded=1;orthogonalLoop=1;jettySize=auto;html=1;entryX=0.459;entryY=1;entryDx=0;entryDy=0;entryPerimeter=0;labelBackgroundColor=default;strokeColor=default;fontFamily=Helvetica;fontSize=11;fontColor=default;endArrow=block;endFill=0;endSize=16;" parent="1" source="A9AcCAwVKS-y1DrHHfAE-28" target="yJOfvLxUSj5ndzEBByeN-11" edge="1">
          <mxGeometry relative="1" as="geometry" />
        </mxCell>
        <mxCell id="A9AcCAwVKS-y1DrHHfAE-28" value="AbstractAutowiredCapableBeanfactory" style="swimlane;fontStyle=1;align=center;verticalAlign=top;childLayout=stackLayout;horizontal=1;startSize=26;horizontalStack=0;resizeParent=1;resizeParentMax=0;resizeLast=0;collapsible=1;marginBottom=0;whiteSpace=wrap;html=1;fontFamily=Helvetica;fontSize=11;fontColor=default;" parent="1" vertex="1">
          <mxGeometry x="-20" y="380" width="300" height="102" as="geometry" />
        </mxCell>
        <mxCell id="A9AcCAwVKS-y1DrHHfAE-30" value="" style="line;strokeWidth=1;fillColor=none;align=left;verticalAlign=middle;spacingTop=-1;spacingLeft=3;spacingRight=3;rotatable=0;labelPosition=right;points=[];portConstraint=eastwest;strokeColor=inherit;fontFamily=Helvetica;fontSize=11;fontColor=default;" parent="A9AcCAwVKS-y1DrHHfAE-28" vertex="1">
          <mxGeometry y="24" width="300" height="8" as="geometry" />
        </mxCell>
        <mxCell id="A9AcCAwVKS-y1DrHHfAE-31" value="+createBean(String beanName,Beanfinition beanfinition): Object" style="text;strokeColor=none;fillColor=none;align=left;verticalAlign=top;spacingLeft=4;spacingRight=4;overflow=hidden;rotatable=0;points=[[0,0.5],[1,0.5]];portConstraint=eastwest;whiteSpace=wrap;html=1;fontSize=11;fontFamily=Helvetica;fontColor=default;" parent="A9AcCAwVKS-y1DrHHfAE-28" vertex="1">
          <mxGeometry y="32" width="300" height="70" as="geometry" />
        </mxCell>
        <mxCell id="A9AcCAwVKS-y1DrHHfAE-33" value="继承" style="text;html=1;align=center;verticalAlign=middle;resizable=0;points=[];autosize=1;strokeColor=none;fillColor=none;fontSize=11;fontFamily=Helvetica;fontColor=default;" parent="1" vertex="1">
          <mxGeometry x="85" y="315" width="50" height="30" as="geometry" />
        </mxCell>
        <mxCell id="A9AcCAwVKS-y1DrHHfAE-35" value="继承" style="text;html=1;align=center;verticalAlign=middle;resizable=0;points=[];autosize=1;strokeColor=none;fillColor=none;fontSize=11;fontFamily=Helvetica;fontColor=default;" parent="1" vertex="1">
          <mxGeometry x="80" y="550" width="50" height="30" as="geometry" />
        </mxCell>
        <mxCell id="A9AcCAwVKS-y1DrHHfAE-36" value="&lt;font style=&quot;font-size: 16px;&quot; color=&quot;#ff0000&quot;&gt;Bean定义&lt;/font&gt;" style="text;html=1;align=center;verticalAlign=middle;resizable=0;points=[];autosize=1;strokeColor=none;fillColor=none;fontSize=11;fontFamily=Helvetica;fontColor=default;" parent="1" vertex="1">
          <mxGeometry x="730" y="760" width="90" height="30" as="geometry" />
        </mxCell>
        <mxCell id="A9AcCAwVKS-y1DrHHfAE-37" value="&lt;font style=&quot;font-size: 16px;&quot; color=&quot;#ff0000&quot;&gt;创建默认bean的Bean工厂超类&lt;/font&gt;" style="text;html=1;align=center;verticalAlign=middle;resizable=0;points=[];autosize=1;strokeColor=none;fillColor=none;fontSize=11;fontFamily=Helvetica;fontColor=default;" parent="1" vertex="1">
          <mxGeometry x="-170" y="345" width="240" height="30" as="geometry" />
        </mxCell>
        <mxCell id="Qx2JOHPuY-8vlEtZF1HM-1" value="&lt;font style=&quot;font-size: 18px;&quot;&gt;流程图&lt;/font&gt;" style="text;html=1;align=center;verticalAlign=middle;resizable=1;points=[];autosize=1;fontSize=11;fontFamily=Helvetica;fillColor=#f8cecc;strokeColor=#b85450;movable=1;rotatable=1;deletable=1;editable=1;locked=0;connectable=1;" parent="1" vertex="1">
          <mxGeometry x="-350" y="1030" width="1560" height="40" as="geometry" />
        </mxCell>
        <mxCell id="mfiATZB2-RqcdrKu-M7J-2" value="" style="edgeStyle=orthogonalEdgeStyle;rounded=0;orthogonalLoop=1;jettySize=auto;html=1;" edge="1" parent="1" source="mfiATZB2-RqcdrKu-M7J-1" target="A9AcCAwVKS-y1DrHHfAE-15">
          <mxGeometry relative="1" as="geometry">
            <Array as="points">
              <mxPoint x="125" y="820" />
              <mxPoint x="125" y="820" />
            </Array>
          </mxGeometry>
        </mxCell>
        <mxCell id="mfiATZB2-RqcdrKu-M7J-1" value="ApiTest" style="html=1;whiteSpace=wrap;" vertex="1" parent="1">
          <mxGeometry x="70" y="910" width="110" height="50" as="geometry" />
        </mxCell>
        <mxCell id="mfiATZB2-RqcdrKu-M7J-3" value="使用" style="text;html=1;align=center;verticalAlign=middle;resizable=0;points=[];autosize=1;strokeColor=none;fillColor=none;" vertex="1" parent="1">
          <mxGeometry x="70" y="830" width="50" height="30" as="geometry" />
        </mxCell>
        <mxCell id="mfiATZB2-RqcdrKu-M7J-4" value="" style="html=1;points=[];perimeter=orthogonalPerimeter;outlineConnect=0;targetShapes=umlLifeline;portConstraint=eastwest;newEdgeStyle={&quot;edgeStyle&quot;:&quot;elbowEdgeStyle&quot;,&quot;elbow&quot;:&quot;vertical&quot;,&quot;curved&quot;:0,&quot;rounded&quot;:0};" vertex="1" parent="1">
          <mxGeometry x="-20" y="1150" width="10" height="530" as="geometry" />
        </mxCell>
        <mxCell id="mfiATZB2-RqcdrKu-M7J-5" value="&lt;font style=&quot;font-size: 18px;&quot;&gt;请求&lt;/font&gt;" style="text;html=1;align=center;verticalAlign=middle;resizable=0;points=[];autosize=1;strokeColor=none;fillColor=none;" vertex="1" parent="1">
          <mxGeometry x="-45" y="1115" width="60" height="40" as="geometry" />
        </mxCell>
        <mxCell id="mfiATZB2-RqcdrKu-M7J-6" value="&lt;font style=&quot;font-size: 16px;&quot;&gt;BeanDefinition&lt;/font&gt;" style="html=1;whiteSpace=wrap;fillColor=#ffe6cc;strokeColor=#d79b00;" vertex="1" parent="1">
          <mxGeometry x="140" y="1140" width="130" height="50" as="geometry" />
        </mxCell>
        <mxCell id="mfiATZB2-RqcdrKu-M7J-8" value="" style="html=1;points=[];perimeter=orthogonalPerimeter;outlineConnect=0;targetShapes=umlLifeline;portConstraint=eastwest;newEdgeStyle={&quot;edgeStyle&quot;:&quot;elbowEdgeStyle&quot;,&quot;elbow&quot;:&quot;vertical&quot;,&quot;curved&quot;:0,&quot;rounded&quot;:0};" vertex="1" parent="1">
          <mxGeometry x="180" y="1190" width="10" height="130" as="geometry" />
        </mxCell>
        <mxCell id="mfiATZB2-RqcdrKu-M7J-9" value="有参构造器实例化BeanDefinition" style="html=1;align=left;spacingLeft=2;endArrow=block;rounded=0;edgeStyle=orthogonalEdgeStyle;curved=0;rounded=0;" edge="1" target="mfiATZB2-RqcdrKu-M7J-8" parent="1">
          <mxGeometry relative="1" as="geometry">
            <mxPoint x="192" y="1202" as="sourcePoint" />
            <Array as="points">
              <mxPoint x="222" y="1202" />
              <mxPoint x="222" y="1260" />
            </Array>
            <mxPoint as="offset" />
          </mxGeometry>
        </mxCell>
        <mxCell id="mfiATZB2-RqcdrKu-M7J-11" value="&lt;font style=&quot;font-size: 16px;&quot;&gt;DefaultListableBeanFactory&lt;/font&gt;" style="html=1;whiteSpace=wrap;fillColor=#ffe6cc;strokeColor=#d79b00;" vertex="1" parent="1">
          <mxGeometry x="480" y="1140" width="205" height="50" as="geometry" />
        </mxCell>
        <mxCell id="mfiATZB2-RqcdrKu-M7J-12" value="" style="endArrow=open;endFill=1;endSize=12;html=1;rounded=0;" edge="1" parent="1" source="mfiATZB2-RqcdrKu-M7J-4" target="mfiATZB2-RqcdrKu-M7J-8">
          <mxGeometry width="160" relative="1" as="geometry">
            <mxPoint y="1290" as="sourcePoint" />
            <mxPoint x="160" y="1290" as="targetPoint" />
            <Array as="points">
              <mxPoint x="80" y="1300" />
            </Array>
          </mxGeometry>
        </mxCell>
        <mxCell id="mfiATZB2-RqcdrKu-M7J-14" value="&lt;div&gt;注册BeanDefinition，&lt;/div&gt;&lt;div&gt;放入map&lt;/div&gt;" style="text;html=1;align=center;verticalAlign=middle;resizable=0;points=[];autosize=1;strokeColor=none;fillColor=none;" vertex="1" parent="1">
          <mxGeometry x="580" y="1226" width="130" height="40" as="geometry" />
        </mxCell>
        <mxCell id="mfiATZB2-RqcdrKu-M7J-16" value="" style="html=1;points=[];perimeter=orthogonalPerimeter;outlineConnect=0;targetShapes=umlLifeline;portConstraint=eastwest;newEdgeStyle={&quot;edgeStyle&quot;:&quot;elbowEdgeStyle&quot;,&quot;elbow&quot;:&quot;vertical&quot;,&quot;curved&quot;:0,&quot;rounded&quot;:0};" vertex="1" parent="1">
          <mxGeometry x="545" y="1200" width="10" height="410" as="geometry" />
        </mxCell>
        <mxCell id="mfiATZB2-RqcdrKu-M7J-17" value="" style="html=1;align=left;spacingLeft=2;endArrow=block;rounded=0;edgeStyle=orthogonalEdgeStyle;curved=0;rounded=0;" edge="1" target="mfiATZB2-RqcdrKu-M7J-16" parent="1">
          <mxGeometry x="0.0133" relative="1" as="geometry">
            <mxPoint x="560" y="1230" as="sourcePoint" />
            <Array as="points">
              <mxPoint x="580" y="1260" />
            </Array>
            <mxPoint as="offset" />
          </mxGeometry>
        </mxCell>
        <mxCell id="mfiATZB2-RqcdrKu-M7J-18" value="" style="endArrow=block;endFill=1;html=1;edgeStyle=orthogonalEdgeStyle;align=left;verticalAlign=top;rounded=0;" edge="1" parent="1">
          <mxGeometry x="-1" relative="1" as="geometry">
            <mxPoint x="190" y="1300" as="sourcePoint" />
            <mxPoint x="540" y="1300" as="targetPoint" />
          </mxGeometry>
        </mxCell>
        <mxCell id="mfiATZB2-RqcdrKu-M7J-21" value="注册bean定义" style="edgeLabel;html=1;align=center;verticalAlign=middle;resizable=0;points=[];" vertex="1" connectable="0" parent="mfiATZB2-RqcdrKu-M7J-18">
          <mxGeometry x="-0.3543" relative="1" as="geometry">
            <mxPoint y="-10" as="offset" />
          </mxGeometry>
        </mxCell>
        <mxCell id="mfiATZB2-RqcdrKu-M7J-20" value="发起调用" style="text;html=1;align=center;verticalAlign=middle;resizable=0;points=[];autosize=1;strokeColor=none;fillColor=none;" vertex="1" parent="1">
          <mxGeometry x="45" y="1275" width="70" height="30" as="geometry" />
        </mxCell>
        <mxCell id="mfiATZB2-RqcdrKu-M7J-23" value="" style="html=1;verticalAlign=bottom;endArrow=block;edgeStyle=elbowEdgeStyle;elbow=vertical;curved=0;rounded=0;" edge="1" parent="1">
          <mxGeometry x="-0.0476" width="80" relative="1" as="geometry">
            <mxPoint x="560" y="1300" as="sourcePoint" />
            <mxPoint x="910" y="1300" as="targetPoint" />
            <mxPoint as="offset" />
          </mxGeometry>
        </mxCell>
        <mxCell id="mfiATZB2-RqcdrKu-M7J-24" value="获取bean" style="edgeLabel;html=1;align=center;verticalAlign=middle;resizable=0;points=[];" vertex="1" connectable="0" parent="mfiATZB2-RqcdrKu-M7J-23">
          <mxGeometry x="-0.0476" y="-3" relative="1" as="geometry">
            <mxPoint y="-13" as="offset" />
          </mxGeometry>
        </mxCell>
        <mxCell id="mfiATZB2-RqcdrKu-M7J-25" value="&lt;font style=&quot;font-size: 16px;&quot;&gt;AbstractBeanFactory&lt;/font&gt;" style="whiteSpace=wrap;html=1;fillColor=#ffe6cc;strokeColor=#d79b00;" vertex="1" parent="1">
          <mxGeometry x="860" y="1140" width="160" height="50" as="geometry" />
        </mxCell>
        <mxCell id="mfiATZB2-RqcdrKu-M7J-26" value="" style="html=1;points=[];perimeter=orthogonalPerimeter;outlineConnect=0;targetShapes=umlLifeline;portConstraint=eastwest;newEdgeStyle={&quot;edgeStyle&quot;:&quot;elbowEdgeStyle&quot;,&quot;elbow&quot;:&quot;vertical&quot;,&quot;curved&quot;:0,&quot;rounded&quot;:0};" vertex="1" parent="1">
          <mxGeometry x="920" y="1190" width="10" height="155" as="geometry" />
        </mxCell>
        <mxCell id="mfiATZB2-RqcdrKu-M7J-27" value="DefaultSingletonBeanRegistry" style="whiteSpace=wrap;html=1;fillColor=#ffe6cc;strokeColor=#d79b00;" vertex="1" parent="1">
          <mxGeometry x="1150" y="1140" width="160" height="50" as="geometry" />
        </mxCell>
        <mxCell id="mfiATZB2-RqcdrKu-M7J-28" value="" style="html=1;points=[];perimeter=orthogonalPerimeter;outlineConnect=0;targetShapes=umlLifeline;portConstraint=eastwest;newEdgeStyle={&quot;edgeStyle&quot;:&quot;elbowEdgeStyle&quot;,&quot;elbow&quot;:&quot;vertical&quot;,&quot;curved&quot;:0,&quot;rounded&quot;:0};" vertex="1" parent="1">
          <mxGeometry x="1220" y="1190" width="10" height="210" as="geometry" />
        </mxCell>
        <mxCell id="mfiATZB2-RqcdrKu-M7J-30" value="从默认单例bean注册类中获取" style="html=1;verticalAlign=bottom;endArrow=block;edgeStyle=elbowEdgeStyle;elbow=vertical;curved=0;rounded=0;" edge="1" parent="1">
          <mxGeometry width="80" relative="1" as="geometry">
            <mxPoint x="930" y="1300" as="sourcePoint" />
            <mxPoint x="1210" y="1300" as="targetPoint" />
            <mxPoint as="offset" />
          </mxGeometry>
        </mxCell>
        <mxCell id="mfiATZB2-RqcdrKu-M7J-31" value="容器中无该bean对象实例，获取bean定义" style="html=1;verticalAlign=bottom;endArrow=open;dashed=1;endSize=8;edgeStyle=elbowEdgeStyle;elbow=vertical;curved=0;rounded=0;" edge="1" parent="1" target="mfiATZB2-RqcdrKu-M7J-16">
          <mxGeometry x="0.0226" y="-10" relative="1" as="geometry">
            <mxPoint x="1220" y="1380" as="sourcePoint" />
            <mxPoint x="1140" y="1380" as="targetPoint" />
            <mxPoint as="offset" />
          </mxGeometry>
        </mxCell>
        <mxCell id="mfiATZB2-RqcdrKu-M7J-33" value="AbstractAutowiredCapableBeanFactory" style="whiteSpace=wrap;html=1;fillColor=#ffe6cc;strokeColor=#d79b00;" vertex="1" parent="1">
          <mxGeometry x="1380" y="1140" width="210" height="50" as="geometry" />
        </mxCell>
        <mxCell id="mfiATZB2-RqcdrKu-M7J-34" value="" style="html=1;points=[];perimeter=orthogonalPerimeter;outlineConnect=0;targetShapes=umlLifeline;portConstraint=eastwest;newEdgeStyle={&quot;edgeStyle&quot;:&quot;elbowEdgeStyle&quot;,&quot;elbow&quot;:&quot;vertical&quot;,&quot;curved&quot;:0,&quot;rounded&quot;:0};" vertex="1" parent="1">
          <mxGeometry x="1490" y="1390" width="10" height="130" as="geometry" />
        </mxCell>
        <mxCell id="mfiATZB2-RqcdrKu-M7J-35" value="返回bean定义" style="html=1;verticalAlign=bottom;endArrow=block;edgeStyle=elbowEdgeStyle;elbow=vertical;curved=0;rounded=0;" edge="1" parent="1">
          <mxGeometry width="80" relative="1" as="geometry">
            <mxPoint x="560" y="1450" as="sourcePoint" />
            <mxPoint x="1490" y="1450" as="targetPoint" />
          </mxGeometry>
        </mxCell>
        <mxCell id="mfiATZB2-RqcdrKu-M7J-37" value="&lt;div&gt;根据bean定义，&lt;/div&gt;&lt;div&gt;创建bean实例&lt;/div&gt;" style="html=1;align=left;spacingLeft=2;endArrow=block;rounded=0;edgeStyle=orthogonalEdgeStyle;curved=0;rounded=0;" edge="1" parent="1">
          <mxGeometry x="-0.0588" y="10" relative="1" as="geometry">
            <mxPoint x="1500" y="1450" as="sourcePoint" />
            <Array as="points">
              <mxPoint x="1530" y="1480" />
            </Array>
            <mxPoint x="1505" y="1480" as="targetPoint" />
            <mxPoint as="offset" />
          </mxGeometry>
        </mxCell>
        <mxCell id="mfiATZB2-RqcdrKu-M7J-38" value="" style="html=1;points=[];perimeter=orthogonalPerimeter;outlineConnect=0;targetShapes=umlLifeline;portConstraint=eastwest;newEdgeStyle={&quot;edgeStyle&quot;:&quot;elbowEdgeStyle&quot;,&quot;elbow&quot;:&quot;vertical&quot;,&quot;curved&quot;:0,&quot;rounded&quot;:0};" vertex="1" parent="1">
          <mxGeometry x="1220" y="1490" width="10" height="80" as="geometry" />
        </mxCell>
        <mxCell id="mfiATZB2-RqcdrKu-M7J-40" value="添加bean实例到容器中" style="html=1;verticalAlign=bottom;endArrow=open;dashed=1;endSize=8;edgeStyle=elbowEdgeStyle;elbow=vertical;curved=0;rounded=0;" edge="1" parent="1">
          <mxGeometry y="-10" relative="1" as="geometry">
            <mxPoint x="1480" y="1510" as="sourcePoint" />
            <mxPoint x="1240" y="1510" as="targetPoint" />
            <mxPoint as="offset" />
          </mxGeometry>
        </mxCell>
        <mxCell id="mfiATZB2-RqcdrKu-M7J-43" value="" style="html=1;points=[];perimeter=orthogonalPerimeter;outlineConnect=0;targetShapes=umlLifeline;portConstraint=eastwest;newEdgeStyle={&quot;edgeStyle&quot;:&quot;elbowEdgeStyle&quot;,&quot;elbow&quot;:&quot;vertical&quot;,&quot;curved&quot;:0,&quot;rounded&quot;:0};" vertex="1" parent="1">
          <mxGeometry x="921" y="1490" width="10" height="80" as="geometry" />
        </mxCell>
        <mxCell id="mfiATZB2-RqcdrKu-M7J-44" value="返回bean实例" style="html=1;verticalAlign=bottom;endArrow=open;dashed=1;endSize=8;edgeStyle=elbowEdgeStyle;elbow=vertical;curved=0;rounded=0;" edge="1" parent="1" source="mfiATZB2-RqcdrKu-M7J-38">
          <mxGeometry x="-0.25" y="-10" relative="1" as="geometry">
            <mxPoint x="1120" y="1530" as="sourcePoint" />
            <mxPoint x="930" y="1530" as="targetPoint" />
            <Array as="points">
              <mxPoint x="930" y="1530" />
            </Array>
            <mxPoint x="1" as="offset" />
          </mxGeometry>
        </mxCell>
        <mxCell id="mfiATZB2-RqcdrKu-M7J-46" value="返回bean实例" style="html=1;verticalAlign=bottom;endArrow=open;dashed=1;endSize=8;edgeStyle=elbowEdgeStyle;elbow=vertical;curved=0;rounded=0;" edge="1" parent="1">
          <mxGeometry x="-0.096" y="-20" relative="1" as="geometry">
            <mxPoint x="910" y="1540" as="sourcePoint" />
            <mxPoint x="556" y="1540" as="targetPoint" />
            <Array as="points">
              <mxPoint x="556" y="1540" />
            </Array>
            <mxPoint as="offset" />
          </mxGeometry>
        </mxCell>
        <mxCell id="mfiATZB2-RqcdrKu-M7J-47" value="执行bean对象方法" style="html=1;verticalAlign=bottom;endArrow=open;dashed=1;endSize=8;edgeStyle=elbowEdgeStyle;elbow=vertical;curved=0;rounded=0;" edge="1" parent="1">
          <mxGeometry x="-0.0741" y="-20" relative="1" as="geometry">
            <mxPoint x="540" y="1540" as="sourcePoint" />
            <mxPoint y="1540" as="targetPoint" />
            <Array as="points">
              <mxPoint x="270" y="1540" />
            </Array>
            <mxPoint x="-1" as="offset" />
          </mxGeometry>
        </mxCell>
      </root>
    </mxGraphModel>
  </diagram>
  <diagram id="6amC-ku6TH8wAoBq7ZNB" name="第 3 页">
    <mxGraphModel dx="1031" dy="538" grid="1" gridSize="10" guides="1" tooltips="1" connect="1" arrows="1" fold="1" page="1" pageScale="1" pageWidth="827" pageHeight="1169" math="0" shadow="0">
      <root>
        <mxCell id="0" />
        <mxCell id="1" parent="0" />
      </root>
    </mxGraphModel>
  </diagram>
</mxfile>
